<?xml version="1.0" standalone="no"?><!DOCTYPE svg PUBLIC "-//W3C//DTD SVG 1.1//EN" "http://www.w3.org/Graphics/SVG/1.1/DTD/svg11.dtd"><svg t="1601273593067" class="icon" viewBox="0 0 1024 1024" version="1.1" xmlns="http://www.w3.org/2000/svg" p-id="3137" xmlns:xlink="http://www.w3.org/1999/xlink" width="200" height="200"><defs><style type="text/css"></style></defs><path d="M352 684.8l185.6-57.6-140.8-128L352 684.8zM556.8 608l352-371.2L947.2 192l57.6-64L864 0l-57.6 64L768 108.8 416 473.6 556.8 608zM870.4 76.8l57.6 57.6-19.2 19.2-57.6-57.6L870.4 76.8zM812.8 134.4 870.4 192 569.6 512 512 454.4 812.8 134.4zM947.2 908.8c0 38.4-32 70.4-70.4 70.4L134.4 979.2c-38.4 0-70.4-32-70.4-70.4L64 166.4C64 128 96 96 134.4 96l563.2 0L697.6 51.2 134.4 51.2c-64 0-115.2 51.2-115.2 115.2l0 742.4c0 64 51.2 115.2 115.2 115.2l742.4 0c64 0 115.2-51.2 115.2-115.2L992 300.8l-44.8 0L947.2 908.8z" p-id="3138"></path></svg>